# xmcd
#
# Track frame offsets:
# 183
# 14465
# 30518
# 42215
# 55278
# 68433
# 81353
# 93278
# 108425
# 122628
# 133078
# 147930
# 170373
# 182938
# 194588
# 206725
# 219210
# 231160
# 243345
# 256815
#
# Disc length: 3558 seconds
#
#
# Revision: 0
# Processed by: cddbd v1.5.1PL0 Copyright (c) Steve Scherf et al.
# Submitted via: FreeRIP 2.70 
#
DISCID=190de414
DTITLE=Various Artist - Memories Are Made Of This [CDOne)
DYEAR=1900
DGENRE=
TTITLE0=Nat King Cole - When I Fall In Love
TTITLE1=Ella Fitzgerald - Ev'ry Time We Say Goodbye
TTITLE2=Danny Williams - Moon River
TTITLE3=Billie Holliday - That Ole Devil Called Love
TTITLE4=Bing Crosby - Around The World
TTITLE5=Tony Bennett - (I Left My Heart) In San Francisco
TTITLE6=Sarah Vaughan and Billy Eckstine - Passing Strangers
TTITLE7=Glen Miller - Moonlight Serenade
TTITLE8=Edith Piaff - La Vie En Rose
TTITLE9=Louis Armstrong - What A Wonderful World
TTITLE10=Peggy Lee - Fever
TTITLE11=Dinah Washington - Easy Living
TTITLE12=Matt Monro - Born Free
TTITLE13=Doris Day - Move Over Darling
TTITLE14=Perry Como - Magic Moments
TTITLE15=Al Martino - Spanish Eyes
TTITLE16=The Platters - Smoke Gets In Your Eyes
TTITLE17=Vic Damone - On The Street Where You Live
TTITLE18=Marilyn Monroe - I Wanna Be Loved By You
TTITLE19=Dean Martin - Memories Are Made Of This
EXTD=visit my web site...\nmusique@pwp.blueyonder.co.uk
EXTT0=
EXTT1=
EXTT2=
EXTT3=
EXTT4=
EXTT5=
EXTT6=
EXTT7=
EXTT8=
EXTT9=
EXTT10=
EXTT11=
EXTT12=
EXTT13=
EXTT14=
EXTT15=
EXTT16=
EXTT17=
EXTT18=
EXTT19=
PLAYORDER=
